<svg width="32" height="32" viewBox="0 0 32 32" fill="none" xmlns="http://www.w3.org/2000/svg">
<path d="M16 0C7.163 0 0 7.164 0 16C0 24.837 7.163 32 16 32C24.836 32 32 24.837 32 16C32 7.164 24.836 0 16 0ZM16 30C8.268 30 2 23.732 2 16C2 8.268 8.268 2 16 2C23.732 2 30 8.268 30 16C30 23.732 23.732 30 16 30Z" fill="#999999"/>
<path d="M16.715 6.293C16.527 6.107 16.264 6 16 6C15.737 6 15.474 6.108 15.286 6.293L8.28703 13.192C7.89203 13.583 7.89303 14.216 8.28703 14.606C8.68203 14.997 9.32102 14.997 9.71602 14.606L14.991 9.406V25C14.991 25.552 15.443 26 16.001 26C16.559 26 17.011 25.552 17.011 25V9.407L22.286 14.607C22.68 14.997 23.32 14.997 23.714 14.607C24.108 14.216 24.108 13.583 23.714 13.193L16.715 6.293Z" fill="#999999"/>
</svg>
