<svg width="40" height="40" viewBox="0 0 40 40" fill="none" xmlns="http://www.w3.org/2000/svg">
    <path d="M33.334 7H29V5C29 4.447 28.553 4 28 4C27.447 4 27 4.447 27 5V7H21V5C21 4.447 20.552 4 20 4C19.448 4 19 4.447 19 5V7H13V5C13 4.447 12.552 4 12 4C11.448 4 11 4.447 11 5V7H6.667C5.194 7 4 8.193 4 9.666V33.333C4 34.806 5.194 36 6.667 36H33.334C34.807 36 36 34.806 36 33.333V9.666C36 8.193 34.807 7 33.334 7ZM34 33.333C34 33.701 33.701 34 33.334 34H6.667C6.299 34 6 33.701 6 33.333V9.666C6 9.299 6.299 9 6.667 9H11V11C11 11.553 11.448 12 12 12C12.552 12 13 11.553 13 11V9H19V11C19 11.553 19.448 12 20 12C20.552 12 21 11.553 21 11V9H27V11C27 11.553 27.447 12 28 12C28.553 12 29 11.553 29 11V9H33.334C33.701 9 34 9.299 34 9.666V33.333Z" fill="#E2E0D0"/>
    <path d="M15 16H11V19H15V16Z" fill="#E2E0D0"/>
    <path d="M15 21H11V24H15V21Z" fill="#E2E0D0"/>
    <path d="M15 26H11V29H15V26Z" fill="#E2E0D0"/>
    <path d="M22 26H18V29H22V26Z" fill="#E2E0D0"/>
    <path d="M22 21H18V24H22V21Z" fill="#E2E0D0"/>
    <path d="M22 16H18V19H22V16Z" fill="#E2E0D0"/>
    <path d="M29 26H25V29H29V26Z" fill="#E2E0D0"/>
    <path d="M29 21H25V24H29V21Z" fill="#E2E0D0"/>
    <path d="M29 16H25V19H29V16Z" fill="#E2E0D0"/>
</svg>
