<svg width="35" height="35" viewBox="0 0 35 35" fill="none" xmlns="http://www.w3.org/2000/svg">
	<path d="M28 20C26.8 20 25.7 20.3 24.7 21H20.3C19.3 20.3 18.2 20 17 20C13.7 20 11 22.7 11 26C11 29.3 13.7 32 17 32C18.2 32 19.3 31.7 20.3 31H24.7C25.7 31.7 26.8 32 28 32C31.3 32 34 29.3 34 26C34 22.7 31.3 20 28 20ZM19 27H18V28C18 28.6 17.6 29 17 29C16.4 29 16 28.6 16 28V27H15C14.4 27 14 26.6 14 26C14 25.4 14.4 25 15 25H16V24C16 23.4 16.4 23 17 23C17.6 23 18 23.4 18 24V25H19C19.6 25 20 25.4 20 26C20 26.6 19.6 27 19 27ZM27.9 27.4C27.8 27.5 27.8 27.6 27.7 27.7C27.6 27.8 27.5 27.9 27.4 27.9C27.3 27.9 27.1 28 27 28C26.9 28 26.7 28 26.6 27.9C26.5 27.9 26.4 27.8 26.3 27.7C26.2 27.6 26.1 27.5 26.1 27.4C26 27.3 26 27.1 26 27C26 26.9 26 26.7 26.1 26.6C26.2 26.5 26.2 26.4 26.3 26.3C26.4 26.2 26.5 26.1 26.6 26.1C27 25.9 27.4 26 27.7 26.3C27.8 26.4 27.9 26.5 27.9 26.6C27.9 26.7 28 26.9 28 27C28 27.1 28 27.3 27.9 27.4ZM29.9 25.4C29.8 25.5 29.8 25.6 29.7 25.7C29.6 25.8 29.5 25.9 29.4 25.9C29.3 25.9 29.1 26 29 26C28.9 26 28.7 26 28.6 25.9C28.5 25.9 28.4 25.8 28.3 25.7C28.1 25.5 28 25.3 28 25C28 24.7 28.1 24.5 28.3 24.3L28.4 24.2C28.5 24.2 28.5 24.1 28.6 24.1C28.7 24.1 28.7 24.1 28.8 24C28.9 24 29.1 24 29.2 24C29.3 24 29.3 24 29.4 24.1C29.5 24.1 29.5 24.1 29.6 24.2L29.7 24.3C29.9 24.5 30 24.8 30 25C30 25.1 30 25.3 29.9 25.4Z" fill="#E2E0D0"/>
	<path d="M15.5 18.2C15.6 17.7 15.6 17.2 15.5 16.7C15.3 15.5 14.4 14.6 13.3 14.2C12.7 14 12 13.8 11.2 13.7C8.8 13.2 6.1 12.6 5.1 10.5C4.7 9.7 4.5 9 4.3 8.3C2.9 10.5 2 13.2 2 16C2 21.2 4.9 25.8 9.1 28.2C9.1 28 9.2 27.9 9.2 27.7C9.1 27.1 9 26.6 9 26C9 22.1 11.8 18.9 15.5 18.2Z" fill="#E2E0D0"/>
	<path d="M11.6 11.7C12.4 11.9 13.2 12.1 13.9 12.3C15.7 12.9 17.1 14.4 17.4 16.3C17.5 16.9 17.5 17.5 17.4 18.1C18.6 18.2 19.7 18.5 20.7 19.1H23.6C24.6 18.4 25.4 17.5 26 16.5C27.4 14.4 27.7 10.5 27.8 8.8C25.5 4.7 21.1 2 16 2C12.1 2 8.6 3.6 6 6.2C6 6.7 6.2 8.1 6.9 9.5C7.5 10.8 9.7 11.2 11.6 11.7Z" fill="#E2E0D0"/>
	<path d="M27.5 18C27.7 18 27.8 18 28 18C28.6 18 29.2 18.1 29.8 18.2C29.9 17.5 30 16.7 30 16C30 14.8 29.8 13.7 29.6 12.6C29.3 14.3 28.8 16.2 27.9 17.5C27.7 17.7 27.6 17.9 27.5 18Z" fill="#E2E0D0"/>
</svg>
