<svg width="32" height="32" viewBox="0 0 32 32" fill="none" xmlns="http://www.w3.org/2000/svg">
	<path d="M21.8999 26.4L20.3999 21.4C20.4999 20.9 20.5999 20.5 20.5999 20C20.5999 17.2 18.3999 15 15.5999 15C14.4999 15 13.4999 15.4 12.5999 16H10.3999C9.49994 15.4 8.49994 15 7.39994 15C4.59994 15 2.39994 17.2 2.39994 20C2.39994 20.5 2.49994 20.9 2.59994 21.4L1.09994 26.4C0.799938 27.2 0.999938 28.1 1.49994 28.8C2.09994 29.6 2.89994 30 3.79994 30C4.69994 30 5.49994 29.6 5.99994 28.9L9.19994 25H13.7999L16.8999 28.9C17.3999 29.6 18.2999 30 19.0999 30C19.9999 30 20.7999 29.6 21.3999 28.9C21.9999 28.1 22.0999 27.2 21.8999 26.4ZM15.6999 21.7C15.4999 21.9 15.2999 22 14.9999 22C14.6999 22 14.4999 21.9 14.2999 21.7C14.0999 21.5 13.9999 21.3 13.9999 21C13.9999 20.7 14.0999 20.5 14.2999 20.3C14.3999 20.2 14.4999 20.1 14.5999 20.1C14.9999 19.9 15.3999 20 15.6999 20.3L15.7999 20.4C15.7999 20.5 15.8999 20.5 15.8999 20.6C15.8999 20.7 15.8999 20.7 15.9999 20.8C15.9999 20.9 15.9999 20.9 15.9999 21C15.9999 21.3 15.8999 21.5 15.6999 21.7ZM16.6999 19.7C16.4999 19.9 16.2999 20 15.9999 20C15.8999 20 15.6999 20 15.5999 19.9C15.4999 19.8 15.3999 19.8 15.2999 19.7C15.0999 19.5 14.9999 19.3 14.9999 19C14.9999 18.7 15.0999 18.5 15.2999 18.3C15.3999 18.2 15.4999 18.1 15.5999 18.1C15.9999 18 16.3999 18 16.6999 18.3C16.8999 18.5 16.9999 18.7 16.9999 19C16.9999 19.3 16.8999 19.5 16.6999 19.7Z" fill="#E2E0D0"/>
	<path d="M28 2H25C24.8 2 24.6 2.1 24.4 2.2L20.1 5.6C19.4 6.2 19 7 19 8V13.9C21.1 15.1 22.6 17.4 22.6 20C22.6 20.5 22.6 20.9 22.5 21.4L23.9 25.9C24.2 27 24.2 28.2 23.7 29.2L24.5 29.8C24.7 29.9 24.9 30 25.1 30H28.1C29.8 30 31.1 28.7 31.1 27V5C31 3.3 29.7 2 28 2ZM27.7 25.7C27.5 25.9 27.3 26 27 26C26.7 26 26.5 25.9 26.3 25.7C26.1 25.5 26 25.3 26 25C26 24.9 26 24.7 26.1 24.6C26.2 24.5 26.2 24.4 26.3 24.3C26.7 23.9 27.3 23.9 27.7 24.3C27.8 24.4 27.9 24.5 27.9 24.6C27.9 24.7 28 24.9 28 25C28 25.3 27.9 25.5 27.7 25.7ZM28 15C28 15.6 27.6 16 27 16C26.4 16 26 15.6 26 15V6C26 5.4 26.4 5 27 5C27.6 5 28 5.4 28 6V15Z" fill="#E2E0D0"/>
</svg>
