<svg width="30" height="30" viewBox="0 0 30 30" fill="none" xmlns="http://www.w3.org/2000/svg">
    <g clip-path="url(#clip0_109_2)">
        <path d="M16.875 0C13.3954 0.00421764 10.0594 1.38838 7.5989 3.84888C5.1384 6.30938 3.75424 9.64533 3.75002 13.125C3.75928 15.9516 4.6896 18.6982 6.40002 20.9486L0.549335 26.7993C0.374447 26.9732 0.235595 27.1799 0.140734 27.4076C0.0458722 27.6353 -0.00313404 27.8794 -0.00347719 28.1261C-0.00382034 28.3727 0.0445063 28.617 0.138734 28.8449C0.232962 29.0729 0.371238 29.28 0.545641 29.4544C0.720044 29.6288 0.927145 29.7671 1.15508 29.8613C1.38301 29.9555 1.6273 30.0038 1.87394 30.0035C2.12058 30.0032 2.36474 29.9542 2.59241 29.8593C2.82008 29.7644 3.02679 29.6256 3.20071 29.4507L9.0514 23.6C11.3018 25.3104 14.0484 26.2407 16.875 26.25C20.356 26.25 23.6944 24.8672 26.1558 22.4058C28.6172 19.9444 30 16.606 30 13.125C30 9.64404 28.6172 6.30564 26.1558 3.84422C23.6944 1.38281 20.356 0 16.875 0V0ZM16.875 22.5C15.0208 22.5 13.2083 21.9502 11.6666 20.92C10.1248 19.8899 8.92322 18.4257 8.21365 16.7127C7.50408 14.9996 7.31842 13.1146 7.68016 11.296C8.0419 9.47746 8.93478 7.80699 10.2459 6.49588C11.557 5.18476 13.2275 4.29188 15.0461 3.93014C16.8646 3.5684 18.7496 3.75406 20.4627 4.46363C22.1757 5.1732 23.6399 6.37482 24.6701 7.91653C25.7002 9.45824 26.25 11.2708 26.25 13.125C26.2471 15.6105 25.2584 17.9934 23.5009 19.7509C21.7434 21.5084 19.3605 22.4971 16.875 22.5Z" fill="#999999"/>
    </g>
    <defs>
        <clipPath id="clip0_109_2">
            <rect width="30" height="30" fill="white"/>
        </clipPath>
    </defs>
</svg>
