<svg width="30" height="30" viewBox="0 0 30 30" fill="none" xmlns="http://www.w3.org/2000/svg">
    <path d="M26.1229 9.54626C25.8773 9.2445 25.5126 9.07849 25.0956 9.07849H21.7813L22.7007 4.60742C22.7872 4.1875 22.6944 3.77148 22.4459 3.4668C22.1998 3.16602 21.835 3 21.418 3C20.5943 3 19.817 3.64355 19.648 4.4668L19.3982 5.68152C19.39 5.71198 19.3768 5.74091 19.3705 5.77185L18.691 9.07849H13.1122L14.0316 4.60742C14.118 4.1875 14.0253 3.77148 13.7767 3.4668C13.5306 3.16602 13.1659 3 12.7489 3C11.9252 3 11.1478 3.64355 10.9789 4.4668L10.7188 5.73151C10.7156 5.74524 10.7093 5.75806 10.7064 5.77185L10.0265 9.07849H6.41785C5.59412 9.07849 4.81629 9.72204 4.64734 10.5443C4.56091 10.9652 4.65418 11.3802 4.90271 11.6849C5.1488 11.9867 5.51355 12.1517 5.93005 12.1517H9.39495L8.41082 16.9379H4.80212C3.97839 16.9379 3.20056 17.5814 3.03161 18.4047C2.94518 18.8236 3.03796 19.2396 3.286 19.5433C3.53209 19.8451 3.89733 20.0111 4.31432 20.0111H7.77922L6.85484 24.5062C6.76841 24.9261 6.86119 25.3422 7.10972 25.6468C7.35533 25.9476 7.72056 26.1136 8.13706 26.1136C8.96079 26.1136 9.73862 25.4701 9.90757 24.6468L10.8609 20.0111H16.4433L15.5189 24.5062C15.4325 24.9261 15.5252 25.3422 15.7738 25.6468C16.0199 25.9476 16.3846 26.1136 16.8016 26.1136C17.6253 26.1136 18.4027 25.4701 18.5716 24.6468L19.5249 20.0111H22.9915C23.8153 20.0111 24.5931 19.3675 24.7621 18.5453C24.8504 18.1166 24.7611 17.7113 24.5106 17.4037C24.2655 17.1029 23.8993 16.9379 23.4798 16.9379H20.157L21.1407 12.1517H24.6073C25.431 12.1517 26.2088 11.5082 26.3778 10.6849C26.4642 10.266 26.3714 9.84997 26.1229 9.54626ZM11.4929 16.9379L12.4766 12.1517H18.059L17.0749 16.9379H11.4929Z" fill="#E2E0D0"/>
</svg>
